<?xml version="1.0" encoding="UTF-8" standalone="no"?>
<!-- Created with Inkscape (http://www.inkscape.org/) -->

<svg
   xmlns:dc="http://purl.org/dc/elements/1.1/"
   xmlns:cc="http://creativecommons.org/ns#"
   xmlns:rdf="http://www.w3.org/1999/02/22-rdf-syntax-ns#"
   xmlns:svg="http://www.w3.org/2000/svg"
   xmlns="http://www.w3.org/2000/svg"
   xmlns:sodipodi="http://sodipodi.sourceforge.net/DTD/sodipodi-0.dtd"
   xmlns:inkscape="http://www.inkscape.org/namespaces/inkscape"
   width="62.151825mm"
   height="16.168367mm"
   viewBox="0 0 62.151825 16.168367"
   version="1.1"
   id="svg5875"
   sodipodi:docname="CapsGrey.svg"
   inkscape:version="0.92.3 (2405546, 2018-03-11)">
  <defs
     id="defs5869">
    <inkscape:path-effect
       effect="skeletal"
       id="path-effect962"
       is_visible="true"
       pattern="m -355.1703,121.19782 h -70.68155"
       copytype="single_stretched"
       prop_scale="0.04739546"
       scale_y_rel="false"
       spacing="0"
       normal_offset="0"
       tang_offset="0"
       prop_units="false"
       vertical_pattern="false"
       fuse_tolerance="0" />
  </defs>
  <sodipodi:namedview
     id="base"
     pagecolor="#ffffff"
     bordercolor="#666666"
     borderopacity="1.0"
     inkscape:pageopacity="0.0"
     inkscape:pageshadow="2"
     inkscape:zoom="3.959798"
     inkscape:cx="91.031402"
     inkscape:cy="38.765992"
     inkscape:document-units="mm"
     inkscape:current-layer="layer1"
     showgrid="false"
     inkscape:window-width="1920"
     inkscape:window-height="1001"
     inkscape:window-x="-9"
     inkscape:window-y="-9"
     inkscape:window-maximized="1"
     fit-margin-top="0.4"
     fit-margin-left="0.4"
     fit-margin-bottom="0.4"
     fit-margin-right="0.4" />
  <metadata
     id="metadata5872">
    <rdf:RDF>
      <cc:Work
         rdf:about="">
        <dc:format>image/svg+xml</dc:format>
        <dc:type
           rdf:resource="http://purl.org/dc/dcmitype/StillImage" />
        <dc:title></dc:title>
      </cc:Work>
    </rdf:RDF>
  </metadata>
  <g
     inkscape:label="Layer 1"
     inkscape:groupmode="layer"
     id="layer1"
     transform="translate(-19.157603,-91.34854)">
    <path
       inkscape:connector-curvature="0"
       id="path868"
       style="font-style:normal;font-variant:normal;font-weight:normal;font-stretch:normal;font-size:medium;line-height:1.25;font-family:'aaaiight!';-inkscape-font-specification:'aaaiight!, Normal';font-variant-ligatures:normal;font-variant-caps:normal;font-variant-numeric:normal;font-feature-settings:normal;text-align:start;letter-spacing:0px;word-spacing:0px;writing-mode:lr-tb;text-anchor:start;opacity:1;fill:#666666;fill-opacity:1;stroke:none;stroke-width:0.2121264"
       d="m 37.548775,100.89719 q 0.02449,0.0252 0.06518,0.0252 0.06518,0 0.138591,-0.0589 0.07336,-0.0589 0.154891,-0.0926 0.220103,-0.0842 0.472819,-0.34532 0.260862,-0.26952 0.480972,-0.581148 0.228256,-0.32005 0.374994,-0.62326 0.15489,-0.31163 0.15489,-0.4885 0,-0.0758 -0.04077,-0.13475 0,-0.1095 0.01627,-0.1853 0.01627,-0.0758 0.01627,-0.17687 -0.06518,-0.0421 -0.15489,-0.0505 -0.08152,-0.0168 -0.187497,-0.0168 -0.228256,0 -0.497279,0.059 -0.260862,0.0505 -0.529884,0.15161 -0.260863,0.10107 -0.505425,0.25267 -0.244563,0.14318 -0.440213,0.32848 -0.187497,0.17686 -0.301629,0.39585 -0.114124,0.21898 -0.114124,0.45481 0,0.513768 0.896725,1.086488 z m 3.497237,-3.048917 q 0.07337,0.38743 0.138592,0.78329 0.06518,0.38742 0.138578,0.77485 0.08153,0.37902 0.187502,0.758027 0.105971,0.379 0.252709,0.73275 0.0081,0.0168 0.0081,0.0505 0,0.0758 -0.105979,0.17688 -0.122277,0.13475 -0.220109,0.2274 -0.08967,0.0842 -0.171191,0.13475 -0.07336,0.0505 -0.138583,0.0758 -0.06518,0.0168 -0.138587,0.0168 v 0.14318 h -0.08967 v 0.0842 q -0.138584,-0.0337 -0.203804,-0.0758 -0.05704,-0.0421 -0.163044,-0.059 v -0.0926 q -0.0489,-0.12633 -0.07336,-0.23582 -0.0245,-0.11792 -0.04077,-0.21899 -0.01627,-0.10106 -0.03263,-0.20214 -0.01627,-0.10106 -0.04891,-0.20214 -0.0245,-0.0337 -0.04891,-0.10948 -0.01627,-0.0758 -0.04077,-0.16003 -0.0245,-0.0926 -0.06518,-0.17687 -0.03263,-0.0926 -0.08152,-0.16003 l 0.0081,-0.0337 -0.03263,-0.0337 q -0.0245,0 -0.130429,0.10108 -0.09783,0.0926 -0.220113,0.2274 -0.114122,0.13476 -0.211949,0.26951 -0.09783,0.12634 -0.122286,0.1853 h -0.0489 q -0.260864,0.32848 -0.554339,0.58957 -0.285322,0.2611 -0.595104,0.44639 -0.309775,0.17687 -0.619556,0.26952 -0.309782,0.0926 -0.603251,0.0926 -0.513585,0 -0.929338,-0.32005 -0.41576,-0.32848 -0.619557,-1.04438 -0.114131,-0.39585 -0.114131,-0.67379 0,-0.244246 0.105978,-0.505346 0.105979,-0.26109 0.317928,-0.58114 0.293476,-0.43797 0.798908,-0.78329 0.513578,-0.35375 1.092375,-0.60641 0.578797,-0.2611 1.149441,-0.42113 0.578798,-0.16845 1.010857,-0.2274 0.01627,-0.0842 0.0245,-0.12634 0.01627,-0.0505 0.15489,-0.0505 0.195652,0 0.260871,0.0421 0.07337,0.0337 0.08967,0.0337 0.0081,0 0.03263,-0.0421 0.252716,0.0253 0.45652,0.11791 0.203803,0.0926 0.383145,0.16002 -0.01627,0.0674 -0.01627,0.10108 0,0.10106 0.0489,0.17686 -0.0489,0.0337 -0.08152,0.0674 0.0081,0.0421 0.0081,0.0758 0.0081,0.0337 0.0081,0.0589 -0.03263,0.0337 -0.114131,0.16844 z" />
    <path
       inkscape:connector-curvature="0"
       id="path870"
       style="font-style:normal;font-variant:normal;font-weight:normal;font-stretch:normal;font-size:medium;line-height:1.25;font-family:'aaaiight!';-inkscape-font-specification:'aaaiight!, Normal';font-variant-ligatures:normal;font-variant-caps:normal;font-variant-numeric:normal;font-feature-settings:normal;text-align:start;letter-spacing:0px;word-spacing:0px;writing-mode:lr-tb;text-anchor:start;opacity:1;fill:#666666;fill-opacity:1;stroke:none;stroke-width:0.2121264"
       d="m 42.896534,105.29369 q -0.01627,-0.0421 -0.0245,-0.0842 -0.0081,-0.0337 -0.01627,-0.0505 h -0.138586 q -0.138586,-0.69906 -0.228256,-1.33917 -0.08968,-0.63168 -0.187505,-1.26336 -0.08967,-0.63168 -0.228256,-1.27178 -0.138586,-0.64854 -0.374994,-1.356017 -0.154892,-0.45481 -0.285321,-0.88435 -0.138586,-0.42955 -0.285324,-0.83382 -0.05705,-0.0168 -0.08152,-0.0421 -0.0245,-0.0337 -0.04077,-0.0674 -0.01627,-0.0337 -0.01627,-0.0842 l 0.0081,0.0337 q 0.0081,0 0.0081,-0.008 0,-0.008 0,-0.0252 -0.0081,-0.0168 -0.0081,-0.0505 h -0.08152 q 0.0081,-0.20213 0.04891,-0.42112 0.138584,-0.0421 0.244563,-0.109489 0.105971,-0.0758 0.293468,-0.11791 v -0.143192 q 0.05705,0.0168 0.146738,0.0253 l 0.0245,-0.0758 h 0.08152 q 0.146738,0 0.277167,0.0337 0.138586,0.0252 0.277177,0.0252 0.02442,0 0.04077,0 0.0245,-0.008 0.04891,-0.008 0.08152,0.21055 0.138591,0.36215 0.06518,0.14319 0.105971,0.26952 0.04891,0.11792 0.08153,0.22741 0.04077,0.10107 0.08152,0.23583 0.0489,0.12633 0.105977,0.28636 0.05705,0.16002 0.138586,0.38743 0.244562,-0.47166 0.513577,-0.92646 0.269023,-0.45482 0.603258,-0.81698 0.334235,-0.36216 0.75814,-0.58115 0.423907,-0.21898 0.978252,-0.21898 0.456512,0 0.978244,0.16003 0.0081,0.0168 0.01627,0.0421 0.0081,0.0168 0.0245,0.0505 h 0.138583 q 0.236411,0.26952 0.34239,0.63168 0.11413,0.36216 0.11413,0.79171 0,0.49692 -0.163044,1.08649 -0.154889,0.58114 -0.45652,1.128598 -0.301619,0.53904 -0.725527,0.98543 -0.423913,0.44638 -0.953791,0.65695 -0.529892,0.21898 -1.222814,0.379 -0.01627,0.008 -0.04077,0.008 -0.06518,0 -0.130437,-0.0337 -0.06518,-0.0253 -0.130431,-0.0253 0.0081,0.23583 0.04077,0.51377 0.04077,0.27794 0.08152,0.57273 0.04077,0.29478 0.07337,0.58956 0.03263,0.29479 0.03263,0.54746 0,0.23582 -0.03263,0.39585 -0.05705,0.0168 -0.130432,0.0337 -0.07337,0.0168 -0.138583,0.0421 -0.05705,0.0252 -0.09783,0.0589 -0.04077,0.0421 -0.04077,0.0926 h -0.269027 q -0.04891,0 -0.07337,0.008 -0.01627,0.008 -0.04077,0.0252 -0.0245,0.0168 -0.07337,0.0505 -0.04077,0.0421 -0.130431,0.10107 z m 1.483675,-3.81536 q 0.01627,0 0.02442,0.008 0.0081,0 0.0245,0 0.130431,0 0.30163,-0.10106 0.171188,-0.1095 0.342379,-0.27795 0.17935,-0.17687 0.334243,-0.38743 0.163036,-0.21056 0.277169,-0.42112 0.228256,-0.412687 0.358685,-0.884347 0.13044,-0.48008 0.13044,-0.93489 0,-0.42954 -0.138584,-0.78329 -0.138594,-0.35374 -0.45652,-0.54745 -0.105978,-0.0674 -0.187497,-0.0674 -0.06518,0 -0.114133,0.0421 -0.04891,0.0421 -0.122277,0.11791 -0.538038,0.55588 -0.839666,1.22125 -0.293476,0.65695 -0.464666,1.42339 0.0245,0.0253 0.08967,0.0421 -0.06518,0.0674 -0.08967,0.134757 0.06518,0 0.07336,0.008 0.01627,0.008 0.01627,0.0505 h -0.138586 q 0,0.0337 0.08967,0.0337 -0.0245,0.3032 -0.0245,0.4885 0,0.10107 0.01627,0.23582 0.01627,0.12634 0.07337,0.25268 0.05705,0.11791 0.154885,0.21898 0.09783,0.0926 0.26902,0.12634 z" />
    <path
       inkscape:connector-curvature="0"
       id="path872"
       style="font-style:normal;font-variant:normal;font-weight:normal;font-stretch:normal;font-size:medium;line-height:1.25;font-family:'aaaiight!';-inkscape-font-specification:'aaaiight!, Normal';font-variant-ligatures:normal;font-variant-caps:normal;font-variant-numeric:normal;font-feature-settings:normal;text-align:start;letter-spacing:0px;word-spacing:0px;writing-mode:lr-tb;text-anchor:start;opacity:1;fill:#666666;fill-opacity:1;stroke:none;stroke-width:0.2121264"
       d="m 50.339375,96.913383 q -0.04077,-0.0674 -0.04077,-0.10949 0.171188,0.0168 0.285321,0.12634 0.122278,0.10106 0.203804,0.24425 0.08152,0.14318 0.122277,0.3032 0.04891,0.15161 0.06518,0.27794 h -0.163044 q -0.07337,0 -0.122277,0.008 -0.04891,0.008 -0.08152,0.0337 -0.03263,0.0253 -0.06518,0.0842 -0.0245,0.0505 -0.05704,0.151601 -0.146738,0.0421 -0.269018,0.10107 -0.122282,0.0505 -0.260868,0.0505 -0.01627,0 -0.03263,0 -0.01627,-0.008 -0.03263,-0.008 v -0.0337 q 0,-0.0674 -0.09783,-0.21898 -0.09783,-0.1516 -0.252708,-0.30321 -0.154893,-0.16003 -0.334243,-0.27794 -0.179343,-0.11791 -0.334227,-0.11791 -0.105979,0 -0.179351,0.0421 -0.187497,0.0337 -0.301627,0.0842 -0.105971,0.0505 -0.105971,0.12633 0,0.11792 0.17119,0.2611 0.179343,0.13476 0.456518,0.26952 0.277169,0.13476 0.611404,0.2611 0.342387,0.11791 0.676622,0.20213 0.586952,0.16003 1.165749,0.28637 0.578797,0.11791 1.051615,0.23582 0.586949,0.15161 0.578798,0.53904 0,0.0758 -0.01627,0.1516 -0.01627,0.0673 -0.04077,0.16003 -0.13044,0.421116 -0.538038,0.842236 -0.399455,0.42112 -0.986404,0.75802 -0.586944,0.33689 -1.312487,0.54746 -0.717372,0.21056 -1.475523,0.21056 -0.766294,0 -1.239112,-0.40428 0.01627,-0.0168 0.09783,-0.059 -0.195649,-0.14318 -0.285322,-0.34532 -0.08967,-0.20214 -0.08967,-0.42955 0,-0.18529 0.05705,-0.37058 0.05705,-0.19371 0.163044,-0.35375 0.105971,-0.16844 0.252709,-0.286357 0.154892,-0.126339 0.342389,-0.193709 v -0.0842 q 0.105976,-0.0337 0.236408,-0.0842 0.130432,-0.0505 0.252717,-0.0926 0.130431,-0.0421 0.244562,-0.0758 0.114125,-0.0337 0.203803,-0.0337 0.105979,0 0.220104,0.0337 0.122278,0.0253 0.122278,0.10107 0,0.11791 -0.114126,0.23583 -0.11413,0.11791 -0.252714,0.252666 -0.130432,0.13476 -0.244565,0.29479 -0.105976,0.16002 -0.105976,0.35374 0,0.26951 0.171196,0.379 0.171191,0.10108 0.497271,0.10108 0.317937,0 0.717383,-0.0842 0.407607,-0.0842 0.75814,-0.2274 0.358696,-0.14319 0.595104,-0.32848 0.244565,-0.19371 0.244565,-0.4127 0,-0.151596 -0.179346,-0.269506 -0.171192,-0.126341 -0.448367,-0.227411 -0.27717,-0.10107 -0.627711,-0.18529 -0.342387,-0.0842 -0.692922,-0.1516 -0.342387,-0.0758 -0.652169,-0.14319 -0.309774,-0.0674 -0.513578,-0.13475 -0.774448,-0.24426 -1.198353,-0.50535 -0.423908,-0.26952 -0.423908,-0.64011 0,-0.29478 0.220105,-0.53903 0.220101,-0.24425 0.529883,-0.42112 0.317934,-0.17687 0.660316,-0.26952 0.342389,-0.10107 0.586951,-0.10107 0.358693,0 0.749993,0.13477 0.391295,0.12633 0.855967,0.27793 z" />
    <path
       inkscape:connector-curvature="0"
       id="path874"
       style="font-style:normal;font-variant:normal;font-weight:normal;font-stretch:normal;font-size:medium;line-height:1.25;font-family:'aaaiight!';-inkscape-font-specification:'aaaiight!, Normal';font-variant-ligatures:normal;font-variant-caps:normal;font-variant-numeric:normal;font-feature-settings:normal;text-align:start;letter-spacing:0px;word-spacing:0px;writing-mode:lr-tb;text-anchor:start;opacity:1;fill:#666666;fill-opacity:1;stroke:none;stroke-width:0.2121264"
       d="m 53.852917,102.4048 q -0.122285,-0.0926 -0.187497,-0.15161 -0.06518,-0.0589 -0.105979,-0.10106 -0.04077,-0.0337 -0.07337,-0.0505 -0.03263,-0.008 -0.08152,-0.008 -0.04077,0 -0.105977,0.008 -0.05705,0.008 -0.154884,0.0168 -0.08968,-0.10106 -0.146738,-0.10106 -0.04077,0 -0.06518,0.0252 -0.01627,0.0253 -0.03263,0.0253 -0.01627,0 -0.01627,-0.0337 0,-0.0252 -0.0081,-0.0589 0,-0.0421 -0.01627,-0.0674 -0.01627,-0.0337 -0.07336,-0.0337 -0.0245,-0.15161 -0.09783,-0.57272 -0.07337,-0.42113 -0.179345,-0.99385 -0.09783,-0.581146 -0.211955,-1.263366 -0.105979,-0.69063 -0.195652,-1.36443 -0.08967,-0.67379 -0.146735,-1.28863 -0.06518,-0.61483 -0.06518,-1.0528 0,-0.22741 0.0245,-0.39586 0.01627,-0.17686 0.05705,-0.26951 0.15489,-0.0337 0.252717,-0.0674 0.105971,-0.0337 0.179342,-0.0673 0.07337,-0.0337 0.130432,-0.0505 0.05704,-0.0253 0.130431,-0.0253 0.08152,0 0.187503,0.0337 0.114125,0.0252 0.301622,0.0926 0,0.008 0,0.0253 0,0.0168 -0.0081,0.0589 0.01627,0.008 0.03263,0.0168 0.01627,0.008 0.04891,0.0168 0.0245,0.21898 0.05704,0.74959 0.04077,0.53061 0.105979,1.22125 0.06518,0.68222 0.14673,1.44866 0.08968,0.76644 0.211957,1.47392 0.07337,0.437976 0.138584,0.842246 0.06518,0.40428 0.138586,0.72433 0.08152,0.31163 0.187502,0.51377 0.105971,0.20213 0.260863,0.23582 -0.01627,0.0926 -0.04077,0.13476 -0.01627,0.0421 -0.03263,0.059 -0.01627,0.0253 -0.03263,0.0253 -0.01627,0.008 -0.01627,0.0337 v 0.0168 q 0,0.10107 -0.07337,0.14319 -0.06518,0.0505 -0.154898,0.0674 -0.08152,0.0168 -0.163036,0.008 -0.08153,0 -0.105979,0 z" />
    <path
       inkscape:connector-curvature="0"
       id="path876"
       style="font-style:normal;font-variant:normal;font-weight:normal;font-stretch:normal;font-size:medium;line-height:1.25;font-family:'aaaiight!';-inkscape-font-specification:'aaaiight!, Normal';font-variant-ligatures:normal;font-variant-caps:normal;font-variant-numeric:normal;font-feature-settings:normal;text-align:start;letter-spacing:0px;word-spacing:0px;writing-mode:lr-tb;text-anchor:start;opacity:1;fill:#666666;fill-opacity:1;stroke:none;stroke-width:0.2121264"
       d="m 54.162699,98.252553 q 0.146738,-0.22741 0.358688,-0.46323 0.220109,-0.24426 0.505431,-0.43797 0.293476,-0.20214 0.652163,-0.32848 0.358693,-0.13476 0.774446,-0.13476 0.08152,0 0.154893,0.008 0.08152,0 0.163044,0.008 v -0.0927 h 0.105971 q 0.407606,0 0.823359,0.16003 0.423908,0.16002 0.790755,0.43796 0.374994,0.27794 0.66847,0.64853 0.301622,0.37058 0.472818,0.791711 0.04077,-0.0421 0.06518,-0.0421 0.02442,0 0.05705,0.10106 0.04077,0.0926 0.06518,0.2274 0.03263,0.12635 0.04891,0.26953 0.0245,0.14317 0.0245,0.23582 0,0.379006 -0.154892,0.724326 -0.146738,0.3369 -0.399452,0.6401 -0.252717,0.29479 -0.586952,0.53904 -0.32608,0.23583 -0.692922,0.4127 -0.358693,0.16845 -0.725533,0.26109 -0.36685,0.0926 -0.69293,0.0926 -0.489125,0 -1.002705,-0.21056 -0.505423,-0.21056 -0.929336,-0.58115 -0.415755,-0.37058 -0.684771,-0.88435 -0.269023,-0.51377 -0.269023,-1.120176 0,-0.59799 0.407607,-1.26336 z m 2.380401,2.998377 q 0.277169,0.0758 0.521732,0.0758 0.350541,0 0.578797,-0.16845 0.23641,-0.16845 0.366847,-0.4127 0.138586,-0.24424 0.187497,-0.53061 0.05704,-0.286367 0.05704,-0.522187 0,-0.45481 -0.08153,-0.690639 -0.08152,-0.244251 -0.195649,-0.370581 -0.114134,-0.13476 -0.244563,-0.21899 -0.122279,-0.0842 -0.211949,-0.2274 -0.171199,-0.2611 -0.366848,-0.2611 -0.04077,0.10107 -0.12228,0.10107 h -0.04891 q -0.08152,0 -0.138586,0.059 -0.203803,-0.16002 -0.211955,-0.16002 v 0.008 0.008 q 0,-0.0252 -0.04077,-0.0758 -0.03263,-0.059 -0.09783,-0.11791 -0.05705,-0.059 -0.138586,-0.10107 -0.08152,-0.0505 -0.179343,-0.0505 -0.391303,0 -0.660318,0.4127 -0.26902,0.40428 -0.26902,1.16229 0,0.32006 0.06518,0.65695 0.06518,0.328477 0.220104,0.614837 0.15489,0.28637 0.399452,0.50535 0.252717,0.21898 0.611405,0.30321 z" />
    <path
       inkscape:connector-curvature="0"
       id="path878"
       style="font-style:normal;font-variant:normal;font-weight:normal;font-stretch:normal;font-size:medium;line-height:1.25;font-family:'aaaiight!';-inkscape-font-specification:'aaaiight!, Normal';font-variant-ligatures:normal;font-variant-caps:normal;font-variant-numeric:normal;font-feature-settings:normal;text-align:start;letter-spacing:0px;word-spacing:0px;writing-mode:lr-tb;text-anchor:start;opacity:1;fill:#666666;fill-opacity:1;stroke:none;stroke-width:0.2121264"
       d="m 64.572889,102.59009 q -0.04077,-0.0589 -0.187497,-0.16845 -0.138583,-0.10107 -0.350533,-0.23582 -0.211958,-0.13476 -0.464672,-0.27794 -0.252709,-0.1516 -0.51358,-0.29479 -0.252714,-0.1516 -0.489125,-0.27794 -0.23641,-0.13476 -0.415753,-0.22741 -0.211955,-0.11791 -0.317933,-0.16845 -0.105979,-0.0589 -0.122278,-0.0673 -0.03263,0.0589 -0.04891,0.0926 -0.0081,0.0253 -0.0245,0.0926 -0.0081,0.0589 -0.0245,0.17687 -0.0081,0.10949 -0.03263,0.32847 h -0.08153 v 0.14318 q -0.105971,0.008 -0.187497,0.0168 -0.07337,0.008 -0.130432,0.0253 v 0.0926 q -0.138583,0.0168 -0.269023,0.0421 -0.122277,0.0252 -0.244562,0.0421 -0.01627,0.0337 -0.02442,0.0589 0,0.0253 -0.0081,0.0421 -0.260861,0.0168 -0.48912,0.0505 -0.203803,-1.77713 -0.423905,-3.495296 -0.220109,-1.7266 -0.432062,-3.529 0.07337,-0.0252 0.1875,-0.059 0.105971,-0.0337 0.21195,-0.0842 0.114131,-0.0505 0.2038,-0.1095 0.09783,-0.0589 0.146741,-0.12634 0.07337,0.0168 0.163036,0.0253 0.09783,0.008 0.179351,0.0252 0.08967,0.0168 0.154889,0.0589 0.07337,0.0421 0.09782,0.12634 h 0.08968 q 0.05705,0.59799 0.08967,1.13703 0.03263,0.53904 0.06518,1.03596 0.03263,0.49692 0.06518,0.95173 0.04077,0.44639 0.105976,0.86751 0.03263,-0.008 0.244565,-0.0926 0.220102,-0.0926 0.538036,-0.21057 0.326083,-0.12633 0.717383,-0.26951 0.399447,-0.14319 0.782595,-0.2611 0.383146,-0.12634 0.725533,-0.20214 0.342389,-0.0842 0.554344,-0.0842 0.0245,0.0337 0.08152,0.11791 0.05704,0.0842 0.11413,0.1853 0.06518,0.10106 0.114134,0.19371 0.0489,0.0926 0.06518,0.14318 -0.334235,0.14318 -0.635865,0.27795 -0.30162,0.13475 -0.595096,0.28635 -0.293476,0.14319 -0.595103,0.32005 -0.293476,0.16845 -0.611405,0.37059 0,0.0673 0.114125,0.1853 0.114131,0.11791 0.301628,0.269506 0.187497,0.15161 0.423908,0.32848 0.244562,0.17687 0.489124,0.35374 0.244563,0.17687 0.480973,0.34532 0.236411,0.16845 0.407607,0.31163 0.440213,0.35374 0.766294,0.39585 0,0.11791 0.03263,0.23583 0.04077,0.12633 0.04077,0.2611 -0.114125,0.0421 -0.309774,0.10107 -0.195651,0.0674 -0.334235,0.0674 -0.146738,0 -0.269023,-0.0758 -0.03263,0.0252 -0.06518,0.0589 -0.03263,0.0337 -0.05705,0.0758 z" />
    <path
       inkscape:connector-curvature="0"
       id="path835"
       style="font-style:normal;font-variant:normal;font-weight:normal;font-stretch:normal;font-size:medium;line-height:1.25;font-family:'a dripping marker';-inkscape-font-specification:'a dripping marker, Normal';font-variant-ligatures:normal;font-variant-caps:normal;font-variant-numeric:normal;font-feature-settings:normal;text-align:start;letter-spacing:0px;word-spacing:0px;writing-mode:lr-tb;text-anchor:start;opacity:1;fill:#666666;fill-opacity:1;stroke:none;stroke-width:0.34654889"
       d="m 24.644384,100.51008 q -0.02772,0 -0.08317,-0.0554 -0.05545,-0.0693 -0.08317,-0.0693 -0.01386,-0.0278 -0.06931,-0.0555 -0.05545,-0.0416 -0.06931,-0.0416 v 1.05352 q 0,0.0277 -0.04159,0.12475 -0.02772,0.0832 -0.02772,0.1109 -0.02772,-0.0278 -0.05544,-0.0832 -0.01386,-0.0554 -0.04159,-0.0832 0,-0.0278 -0.04159,-0.16635 -0.02772,-0.13862 -0.02772,-0.20793 0,-0.0278 -0.01386,-0.1109 0,-0.0832 -0.01386,-0.1802 -0.01387,-0.097 -0.02772,-0.1802 -0.01386,-0.0832 -0.02772,-0.1109 0,-0.0278 -0.02772,-0.13862 -0.01386,-0.12476 -0.02772,-0.18021 -0.04159,-0.0138 -0.166342,-0.0554 -0.124759,-0.0416 -0.277241,-0.0832 -0.138618,-0.0554 -0.277238,-0.097 -0.138619,-0.0416 -0.194067,-0.0554 -0.02772,0 -0.138619,-0.0278 -0.110896,-0.0278 -0.13862,-0.0554 -0.04159,0 -0.13862,-0.0278 -0.08317,-0.0278 -0.110896,-0.0278 l -0.05545,-0.0693 V 99.4703 99.33168 q 0,-0.0278 0.02772,-0.0832 0.02772,-0.0555 0.02772,-0.0832 0.05545,-0.0554 0.221791,-0.22178 0.166345,-0.16635 0.235653,-0.2218 0,-0.0138 0.06931,-0.0277 0.06931,-0.0278 0.09703,-0.0555 0.02772,0 0.138621,-0.0278 0.110896,-0.0278 0.13862,-0.0278 0.04159,0 0.152481,-0.0138 0.124758,-0.0138 0.263378,-0.0138 0.152481,-0.0138 0.263377,-0.0278 0.124758,-0.0138 0.166343,-0.0138 l 0.110896,-0.0278 q 0.09703,-0.0278 0.166343,-0.0693 0.04159,0 0.124759,-0.0278 0.09703,-0.0416 0.124757,-0.0416 0.05545,-0.0138 0.166343,-0.0554 0.124757,-0.0555 0.235655,-0.097 0.124757,-0.0555 0.221789,-0.097 0.09704,-0.0416 0.124762,-0.0554 0.01384,-0.0138 0.06929,-0.0416 0.05544,-0.0278 0.124755,-0.0555 0.06929,-0.0416 0.138619,-0.0693 0.06929,-0.0416 0.09704,-0.0416 0.0416,-0.0278 0.124754,-0.0693 0.09703,-0.0555 0.180207,-0.097 0.08317,-0.0554 0.152484,-0.097 0.06929,-0.0416 0.08317,-0.0554 0.02776,-0.0138 0.09703,-0.0693 0.06929,-0.0693 0.138619,-0.13862 0.06929,-0.0832 0.124762,-0.13862 0.06929,-0.0555 0.08317,-0.0832 0,-0.0138 0.01384,-0.0693 0.01384,-0.0693 0.01384,-0.12476 0.01384,-0.0693 0.02776,-0.12475 0.01384,-0.0555 0.02769,-0.0555 0,-0.0554 0.0416,-0.16634 0.05544,-0.12476 0.08317,-0.15248 0.0416,-0.0278 0.152484,-0.13862 0.110896,-0.12476 0.152477,-0.15249 0.02776,-0.0138 0.138626,-0.0693 0.124754,-0.0693 0.180199,-0.0693 h 0.09704 0.124755 l 0.06929,0.0554 q 0,0.0555 0,0.16634 0.01384,0.097 0.01384,0.15249 0,0.0278 -0.01384,0.0693 0,0.0416 0,0.0832 v 0.1109 q 0,0.0277 -0.02769,0.12476 -0.01384,0.0832 -0.0416,0.12476 -0.01384,0.0416 -0.02776,0.0693 -0.02776,0.0555 -0.06929,0.0555 -0.05544,0.097 -0.152484,0.27724 -0.09703,0.1802 -0.124755,0.20793 -0.02776,0.0278 -0.110896,0.11089 -0.06929,0.0693 -0.166342,0.16634 -0.09703,0.097 -0.194071,0.19407 -0.08317,0.0832 -0.124755,0.1109 -0.02769,0.0278 -0.152483,0.11089 -0.110897,0.0832 -0.166342,0.1109 -0.02776,0.0278 -0.09703,0.0832 -0.06929,0.0416 -0.138626,0.097 -0.06929,0.0416 -0.124755,0.0832 -0.05544,0.0416 -0.06929,0.0554 -0.0416,0.0278 -0.194064,0.097 -0.152484,0.0693 -0.318826,0.16634 -0.166349,0.0832 -0.304968,0.16635 -0.138619,0.0693 -0.180205,0.0832 l -0.06931,0.0693 0.609927,0.30497 q 0.01384,0.0138 0.08317,0.0555 0.08317,0.0416 0.166342,0.097 0.08317,0.0416 0.152484,0.0832 0.08317,0.0416 0.110896,0.0555 0.02776,0.0278 0.11089,0.0832 0.09704,0.0416 0.124762,0.0693 0.01384,0.0278 0.138619,0.1109 0.124754,0.0832 0.166341,0.11089 0.05545,0.0693 0.194071,0.18021 0.152477,0.1109 0.180207,0.13862 0.05544,0.0138 0.152477,0.13862 0.09703,0.12475 0.124761,0.16634 0.02776,0 0.11089,0.1109 0.08317,0.11089 0.138619,0.16634 0.02776,0.0554 0.08317,0.13862 l 0.0416,0.0832 q 0.0416,0.0693 0.124755,0.24952 0.09704,0.16634 0.124761,0.20793 0,0.0278 0.02776,0.12475 0.02776,0.0832 0.02776,0.1109 v 0.13862 0.16634 q 0,0.0277 -0.06929,0.13862 -0.05545,0.11089 -0.06929,0.13862 -0.01384,0.0278 -0.06929,0.0832 -0.05544,0.0555 -0.124755,0.12476 -0.05544,0.0555 -0.110897,0.1109 -0.05545,0.0416 -0.06929,0.0554 -0.02776,0.0278 -0.13862,0.0832 -0.110896,0.0554 -0.152483,0.0832 h -0.08317 -0.06929 l -0.02776,-0.0277 q -0.0416,-0.0416 -0.06929,-0.0416 0,-0.097 -0.06929,-0.16635 l -0.02776,-0.11089 q -0.01384,-0.0555 -0.02776,-0.097 -0.01384,-0.0139 -0.0416,-0.0832 -0.02776,-0.0693 -0.06929,-0.15247 -0.0416,-0.0832 -0.08318,-0.13863 -0.0416,-0.0693 -0.05544,-0.097 0,-0.0278 -0.06929,-0.1109 -0.05545,-0.0832 -0.05545,-0.097 -0.0416,-0.0416 -0.152477,-0.13862 -0.09704,-0.1109 -0.207929,-0.22179 -0.09704,-0.11089 -0.194071,-0.20793 -0.09703,-0.097 -0.138619,-0.12476 0,0 -0.06929,-0.0416 -0.06929,-0.0554 -0.152484,-0.1109 -0.08317,-0.0693 -0.166341,-0.12475 -0.08317,-0.0693 -0.124755,-0.097 -0.05544,-0.0278 -0.194071,-0.1109 -0.138618,-0.0832 -0.180206,-0.1109 l -0.06931,0.0416 v 2.57831 l -0.09703,0.30497 q 0,-0.0138 -0.04159,-0.0693 -0.02772,-0.0554 -0.02772,-0.0693 -0.01387,-0.0554 -0.04159,-0.27724 -0.01387,-0.23565 -0.01387,-0.33269 -0.01386,-0.12476 -0.04159,-0.44358 -0.01386,-0.33269 -0.04159,-0.70696 -0.02772,-0.37427 -0.05545,-0.70696 -0.01386,-0.33269 -0.01386,-0.47131 z" />
    <path
       inkscape:connector-curvature="0"
       id="path837"
       style="font-style:normal;font-variant:normal;font-weight:normal;font-stretch:normal;font-size:medium;line-height:1.25;font-family:'a dripping marker';-inkscape-font-specification:'a dripping marker, Normal';font-variant-ligatures:normal;font-variant-caps:normal;font-variant-numeric:normal;font-feature-settings:normal;text-align:start;letter-spacing:0px;word-spacing:0px;writing-mode:lr-tb;text-anchor:start;opacity:1;fill:#666666;fill-opacity:1;stroke:none;stroke-width:0.34654889"
       d="m 32.747318,102.64226 q -0.0416,0 -0.221787,-0.0693 -0.180206,-0.0554 -0.249516,-0.0832 -0.05544,-0.0277 -0.221793,-0.11089 -0.166349,-0.0832 -0.221794,-0.1109 -0.02769,-0.0138 -0.124754,-0.0832 -0.09704,-0.0555 -0.207929,-0.12476 -0.09704,-0.0693 -0.207929,-0.13862 -0.09704,-0.0693 -0.138619,-0.097 -0.02776,-0.0138 -0.08317,-0.0554 -0.05545,-0.0555 -0.124754,-0.097 -0.05544,-0.0554 -0.110897,-0.097 -0.0416,-0.0416 -0.05545,-0.0554 l -1.122818,-1.12282 -0.08317,-0.1109 q -0.02776,-0.0416 -0.06929,-0.0832 -0.02776,-0.0554 -0.05544,-0.0832 -0.02776,-0.0416 -0.08317,-0.124747 -0.05544,-0.097 -0.08317,-0.12477 l -0.06929,-0.12475 q 0,-0.0278 -0.02776,-0.12476 -0.02776,-0.097 -0.05545,-0.12476 0,-0.0277 -0.02776,-0.16634 -0.01384,-0.0554 -0.02776,-0.12476 v -0.26337 -0.24952 q 0,-0.0554 0.02776,-0.15248 0.02776,-0.1109 0.02776,-0.16634 0.02776,-0.0554 0.08318,-0.16635 0.05545,-0.12476 0.110896,-0.23565 0.06929,-0.12476 0.11089,-0.2218 0.05544,-0.097 0.06929,-0.12475 0.02769,-0.0138 0.124754,-0.1109 0.09703,-0.1109 0.207929,-0.22179 0.124762,-0.12476 0.235651,-0.23565 0.110897,-0.12476 0.180207,-0.18021 0.02776,-0.0278 0.110896,-0.0832 0.09703,-0.0554 0.13862,-0.0832 0.05544,-0.0138 0.221793,-0.097 0.166342,-0.0832 0.221794,-0.1109 0.06929,-0.0278 0.235651,-0.0832 0.166341,-0.0555 0.221786,-0.0832 0.0416,0 0.152484,0 0.110897,-0.0138 0.235651,-0.0278 0.138626,-0.0138 0.249523,-0.0138 0.124755,-0.0138 0.166342,-0.0138 -0.01384,-0.0554 -0.01384,-0.19406 0,-0.13863 0.01384,-0.180209 0,-0.0555 0.06929,-0.152481 0.06929,-0.110899 0.09703,-0.166339 0.02776,-0.0416 0.180206,-0.180211 0.152484,-0.13862 0.194064,-0.19407 l 0.277238,-0.13862 h 0.09704 0.06929 q 0.01384,0.0138 0.06929,0.0416 0.05544,0.0138 0.06929,0.0416 l 0.06929,0.0555 q 0.01384,0.0278 0.02776,0.0693 0.02769,0.0278 0.0416,0.0693 0.01384,0.0554 0.02776,0.097 0.02776,0.0416 0.06929,0.13862 0.05545,0.0832 0.08317,0.110891 0.0416,0.0555 0.194071,0.207929 0.166341,0.15249 0.346548,0.33269 0.180206,0.180211 0.346548,0.34655 0.166348,0.166351 0.235658,0.23565 0.01384,0 0.08317,0.0693 0.08317,0.0554 0.166349,0.13863 0.09703,0.0693 0.180199,0.13862 0.08317,0.0693 0.110897,0.0832 0.02776,0.0278 0.09704,0.110901 0.08317,0.0693 0.152477,0.15248 0.08317,0.0832 0.152483,0.16634 0.06929,0.0693 0.09703,0.097 0.01384,0.0278 0.0416,0.0832 0.0416,0.0555 0.0416,0.0832 -0.02776,0.0416 -0.0416,0.0832 -0.01384,0.0278 -0.02776,0.0693 -0.01384,0.0278 -0.01384,0.0555 0,0.0277 -0.01384,0.0554 -0.01384,0.0138 -0.02776,0.0416 -0.01384,0.0416 -0.02776,0.0693 -0.02776,0.0278 -0.08317,0.0832 -0.05544,0.0416 -0.124754,0.1109 -0.05544,0.0554 -0.110897,0.11089 -0.0416,0.0554 -0.05545,0.0693 -0.02776,0.0138 -0.152484,0.0693 -0.110897,0.0554 -0.152484,0.0693 h -0.110897 -0.124754 q -0.02776,-0.0138 -0.09703,-0.0693 -0.06929,-0.0555 -0.152484,-0.110901 -0.08317,-0.0693 -0.166341,-0.124748 -0.06929,-0.0555 -0.09704,-0.0693 -0.08317,-0.0693 -0.249509,-0.16634 -0.166348,-0.1109 -0.194071,-0.13862 -0.0416,-0.0278 -0.221793,-0.1109 -0.180199,-0.0832 -0.249516,-0.097 -0.05544,-0.0278 -0.221786,-0.0832 -0.166342,-0.0555 -0.221794,-0.0832 h -0.124755 v 0.74855 h -0.124762 v -0.81786 h -0.124754 q -0.01384,0.0555 -0.06929,0.19407 -0.05545,0.13862 -0.06929,0.18021 l -0.06929,0.0693 q -0.02776,-0.0278 -0.05544,-0.1109 -0.01384,-0.0832 -0.0416,-0.097 0,-0.0555 -0.0416,-0.19407 -0.02776,-0.13862 -0.02776,-0.18021 -0.0416,-0.0278 -0.221786,-0.0554 -0.166349,-0.0278 -0.207929,-0.0555 h -0.4436 -0.388135 q -0.0416,0.0138 -0.09703,0.0416 l -0.138619,0.0693 q -0.0416,0.0138 -0.166342,0.0693 -0.110896,0.0555 -0.138619,0.0693 l -0.06929,0.0693 q -0.01384,0.0277 -0.05544,0.0832 -0.02776,0.0555 -0.02776,0.0832 v 0.38812 0.36042 q 0.02776,0.0554 0.06929,0.11089 0.02776,0.0416 0.0416,0.0832 0.02776,0.0416 0.0416,0.0693 0.02776,0.0554 0.08317,0.15247 0.05544,0.0832 0.08317,0.097 0.01384,0.0278 0.06929,0.097 0.05544,0.0555 0.110896,0.12476 0.06929,0.0693 0.124755,0.13863 0.05544,0.0554 0.06929,0.0832 0.01384,0.0416 0.08318,0.1109 0.08317,0.0693 0.166341,0.15248 0.08318,0.0832 0.152484,0.166335 0.08317,0.0693 0.110897,0.1109 0.02776,0.0278 0.09703,0.0832 0.06929,0.0554 0.152484,0.13862 0.08317,0.0693 0.166341,0.13862 0.08317,0.0554 0.124755,0.0693 0.02776,0.0278 0.138619,0.12476 0.110897,0.0832 0.138619,0.12475 0.0416,0.0278 0.110897,0.0693 0.06929,0.0416 0.138619,0.0832 0.08317,0.0416 0.138619,0.0832 0.06929,0.0278 0.08318,0.0416 0.02776,0.0278 0.207928,0.1109 0.180207,0.0832 0.235652,0.11089 0.02776,0.0138 0.05544,0.0278 0.0416,0.0138 0.06929,0.0278 l 0.08317,0.0278 h 0.291103 0.249515 q 0.01384,0 0.02776,-0.0278 0.02776,-0.0278 0.05545,-0.0555 l 0.05544,-0.12475 q 0.02776,-0.0416 0.0416,-0.15249 0.02776,-0.11089 0.02776,-0.15248 0.01384,-0.0278 0.02776,-0.097 0.02776,-0.0832 0.0416,-0.16634 0.01384,-0.097 0.01384,-0.16635 0.01384,-0.0832 0.01384,-0.11089 0,-0.0555 0.02776,-0.15248 0.0416,-0.097 0.0416,-0.12476 0.01384,-0.0278 0.02776,-0.097 0.02776,-0.0693 0.05545,-0.0693 0.01384,-0.0277 0.06929,-0.097 0.06929,-0.0693 0.138619,-0.13862 0.08317,-0.0693 0.138619,-0.12475 0.05544,-0.0693 0.08317,-0.097 0.02776,-0.0138 0.06929,-0.0278 0.08317,-0.0278 0.09704,-0.0278 0.02776,-0.0138 0.05544,-0.0278 0.0416,-0.0138 0.06929,-0.0416 0.0416,-0.0278 0.08317,-0.0416 0.02776,0.0278 0.09703,0.0832 0.06929,0.0554 0.06929,0.0832 v 0.277231 0.249519 q 0,0.0278 -0.02776,0.20793 -0.02776,0.16635 -0.02776,0.26338 -0.02776,0.0278 -0.05544,0.13862 -0.02776,0.1109 -0.05544,0.13862 0,0.0416 -0.06929,0.1802 -0.05545,0.13862 -0.06929,0.19407 0,0.0416 -0.06929,0.16635 -0.06929,0.12475 -0.09704,0.13862 0,0.0277 -0.05544,0.12475 -0.0416,0.0832 -0.06929,0.1109 -0.05545,0.0416 -0.138619,0.16634 -0.08318,0.1109 -0.110897,0.13862 l -0.124755,0.12476 q -0.02776,0.0278 -0.152483,0.1109 -0.110897,0.097 -0.166342,0.13862 -0.02776,0.0138 -0.06929,0.0277 -0.02776,0.0138 -0.05544,0.0416 l -0.08317,0.0555 q -0.01384,0.0138 -0.06929,0.0278 -0.05544,0.0277 -0.124761,0.0554 -0.05544,0.0278 -0.110897,0.0416 -0.05544,0.0278 -0.06929,0.0278 -0.02776,0.0278 -0.09703,0.0416 -0.06929,0.0278 -0.06929,0.0554 l -0.05544,0.12475 q -0.02776,0.0278 -0.05544,0.0554 -0.01384,0.0278 -0.02776,0.0278 0,-0.0138 -0.02776,-0.097 -0.01384,-0.0832 -0.0416,-0.1109 0,-0.0416 -0.02776,-0.0416 h -0.01384 q -0.01384,0 -0.05545,0.0416 0,0.097 -0.01384,0.34655 -0.01384,0.24952 -0.02776,0.54062 0,0.2911 -0.01384,0.54062 -0.01384,0.24951 -0.01384,0.34654 0,0.0416 -0.02776,0.23566 -0.02776,0.20793 -0.02776,0.30496 -0.02776,0.0693 -0.05544,0.20793 -0.02776,0.13862 -0.02776,0.16634 0,0.0138 -0.0416,0.0693 -0.02776,0.0554 -0.02776,0.0693 z" />
    <path
       inkscape:connector-curvature="0"
       id="path851"
       style="font-style:normal;font-variant:normal;font-weight:normal;font-stretch:normal;font-size:medium;line-height:1.25;font-family:'a dripping marker';-inkscape-font-specification:'a dripping marker, Normal';font-variant-ligatures:normal;font-variant-caps:normal;font-variant-numeric:normal;font-feature-settings:normal;text-align:start;letter-spacing:0px;word-spacing:0px;writing-mode:lr-tb;text-anchor:start;opacity:1;fill:#666666;fill-opacity:1;stroke:none;stroke-width:0.34654889"
       d="m 66.601026,102.1814 q 0.01384,-0.0416 0.02776,-0.097 0.02776,-0.1109 0.02776,-0.13862 0.05544,-0.0693 0.09703,-0.20793 0.05544,-0.13862 0.05544,-0.16634 l 3.839762,-7.485457 q 0,-0.0138 0.08317,-0.097 0.08317,-0.097 0.124762,-0.15247 0.02776,0 0.110897,-0.0416 0.09703,-0.0554 0.124754,-0.0832 0.01384,0 0.02776,-0.0138 0.01384,-0.0138 0.01384,-0.0138 0.01384,0 0.02776,-0.0138 0.02776,-0.0138 0.06929,-0.0416 h 0.124761 0.110887 q 0.01384,0 0.0416,0.0416 0.0416,0.0278 0.0416,0.0416 v 0.16634 0.12476 q -0.01384,0.0278 -0.05544,0.13862 -0.0416,0.097 -0.110895,0.23565 -0.05545,0.12476 -0.110897,0.24952 -0.05544,0.12475 -0.09703,0.20793 -0.09703,0.1802 -0.304961,0.59606 -0.207933,0.41586 -0.443587,0.8733 -0.221792,0.45745 -0.429721,0.85945 -0.194064,0.38813 -0.263374,0.52675 -0.0416,0.097 -0.249523,0.4713 -0.194064,0.37428 -0.415851,0.804 -0.221792,0.42972 -0.42972,0.804 -0.194064,0.374267 -0.235651,0.471297 -0.02776,0.0278 -0.06929,0.12476 -0.0416,0.0832 -0.09703,0.1802 -0.05544,0.097 -0.09703,0.18021 -0.0416,0.0832 -0.0416,0.097 -0.02776,0.0554 -0.08317,0.20792 -0.05544,0.15248 -0.08317,0.16635 0,0.0138 -0.01384,0.0832 -0.01384,0.0693 -0.02776,0.15248 0,0.0693 -0.01384,0.13862 -0.01384,0.0554 -0.01384,0.0693 0,0.0278 -0.06929,0.15249 -0.05544,0.1109 -0.06929,0.15248 -0.02776,0.0278 -0.08317,0.12476 -0.05544,0.0832 -0.08317,0.11089 -0.02776,0.0278 -0.08317,0.0832 -0.05544,0.0554 -0.110903,0.12475 -0.05544,0.0555 -0.110897,0.1109 -0.05544,0.0416 -0.06929,0.0554 -0.02776,0.0138 -0.138621,0.0832 -0.110897,0.0554 -0.138626,0.0554 h -0.12475 -0.124754 l -0.05544,-0.0554 v -0.20793 z" />
    <path
       inkscape:connector-curvature="0"
       id="path853"
       style="font-style:normal;font-variant:normal;font-weight:normal;font-stretch:normal;font-size:medium;line-height:1.25;font-family:'a dripping marker';-inkscape-font-specification:'a dripping marker, Normal';font-variant-ligatures:normal;font-variant-caps:normal;font-variant-numeric:normal;font-feature-settings:normal;text-align:start;letter-spacing:0px;word-spacing:0px;writing-mode:lr-tb;text-anchor:start;opacity:1;fill:#666666;fill-opacity:1;stroke:none;stroke-width:0.34654889"
       d="m 73.326309,102.01886 v -0.24951 q 0,-0.0278 0.02776,-0.12476 0.0416,-0.1109 0.0416,-0.18021 0.02776,-0.0555 0.0416,-0.13862 0.02776,-0.097 0.05545,-0.097 0.01384,-0.0416 0.05544,-0.15249 0.05545,-0.11089 0.11089,-0.22178 0.06929,-0.1109 0.124761,-0.2218 0.05544,-0.11089 0.08317,-0.15248 0,-0.0138 0.0416,-0.097 0.05545,-0.0832 0.08317,-0.1109 0.05545,-0.0693 0.13862,-0.1802 0.08317,-0.110897 0.110898,-0.124757 0.02776,-0.0416 0.124754,-0.15248 0.110902,-0.1109 0.235656,-0.23565 0.124756,-0.12476 0.235654,-0.2218 0.110895,-0.11089 0.152482,-0.13862 0,-0.0278 0.110897,-0.11089 0.110898,-0.097 0.166341,-0.12476 0.0416,-0.0138 0.138621,-0.0832 0.09703,-0.0693 0.207928,-0.13862 0.124761,-0.0693 0.207928,-0.13862 0.09703,-0.0693 0.124756,-0.097 l 0.06929,-0.0555 0.0416,-0.0416 -0.0416,-0.0278 q -0.02776,-0.0416 -0.138625,-0.1109 -0.09703,-0.0693 -0.221795,-0.13861 -0.124746,-0.0693 -0.235652,-0.12476 -0.110897,-0.0693 -0.152476,-0.097 -0.02776,-0.0277 -0.110898,-0.0693 -0.08317,-0.0555 -0.09703,-0.0832 -0.06929,-0.0416 -0.207936,-0.13862 -0.124756,-0.11089 -0.277238,-0.20793 -0.138621,-0.11089 -0.263374,-0.19406 -0.124754,-0.097 -0.166341,-0.12476 -0.02776,-0.0278 -0.09704,-0.0832 -0.06929,-0.0554 -0.138618,-0.1109 -0.06929,-0.0693 -0.138621,-0.11089 -0.05545,-0.0554 -0.06929,-0.0693 l -1.261443,-1.26144 v -0.12476 -0.1109 q 0,-0.0416 0.06929,-0.15247 0.05545,-0.12477 0.06929,-0.15249 0.02776,-0.0554 0.138612,-0.15248 0.124762,-0.11089 0.152485,-0.16634 0.05544,-0.0138 0.166341,-0.0693 0.124756,-0.0555 0.152485,-0.0555 h 0.0416 q 0.02776,0 0.0416,0 0.01384,-0.0138 0.0416,-0.0138 l 0.08317,0.0138 q 0.05544,0.0416 0.194064,0.166351 0.152485,0.12475 0.304967,0.277229 0.152479,0.13862 0.291105,0.26338 0.138618,0.124761 0.180197,0.166351 0.02776,0.0416 0.110905,0.12475 0.09702,0.0832 0.194064,0.16635 0.09703,0.0832 0.1802,0.16634 0.09704,0.0693 0.138626,0.0832 0.02776,0.0278 0.166341,0.15248 0.13862,0.1109 0.207928,0.16634 0.02776,0.0138 0.13862,0.097 0.110898,0.0832 0.138618,0.110889 0.05545,0.0416 0.138621,0.110901 0.09703,0.0554 0.180205,0.12476 0.08317,0.0554 0.13862,0.097 0.06929,0.0416 0.08317,0.0416 0.02776,0.0278 0.124757,0.097 0.110895,0.0554 0.235651,0.12476 0.124759,0.0693 0.235656,0.13861 0.110898,0.0693 0.152485,0.1109 0.0416,0.0278 0.207923,0.11089 0.180205,0.0832 0.249523,0.097 0.02776,0 0.166341,0.0693 0.152482,0.0693 0.207928,0.097 0.0416,0 0.207928,0.0693 0.180208,0.0554 0.221795,0.0554 0.02776,0.0278 0.152477,0.0555 0.138618,0.0138 0.166341,0.0278 l 0.05545,0.0693 v 0.124759 0.097 q 0,0.0554 -0.06929,0.1802 -0.05545,0.11089 -0.06929,0.13862 -0.01384,0.0278 -0.06929,0.0832 -0.05545,0.0416 -0.124764,0.097 -0.05545,0.0555 -0.11089,0.110901 -0.05545,0.0554 -0.06929,0.0832 -0.02776,0.0138 -0.152476,0.0693 -0.110898,0.0555 -0.138621,0.0693 -0.02776,0 -0.124761,0.0138 -0.08317,0.0138 -0.194064,0.0278 -0.09703,0 -0.194072,0.0138 -0.09703,0.0138 -0.110895,0.0138 -0.02769,0 -0.138621,0.0416 -0.110889,0.0278 -0.138617,0.0554 v 0.124769 q 0,0.0277 -0.0416,0.097 -0.02776,0.0554 -0.05545,0.0554 h -0.02776 -0.0416 q -0.01384,-0.0278 -0.02776,-0.0693 -0.02776,-0.0554 -0.02776,-0.0832 -0.02776,0 -0.06929,-0.0278 -0.02776,-0.0277 -0.05545,-0.0277 v 1.122827 l -0.124756,0.0832 q 0,-0.0555 -0.0416,-0.16634 -0.02776,-0.12476 -0.02776,-0.15249 0,-0.0278 -0.01384,-0.124757 0,-0.097 -0.01384,-0.19407 -0.01384,-0.1109 -0.02776,-0.20793 0,-0.1109 0,-0.15248 l -0.08317,-0.0693 q -0.09703,0.0416 -0.180207,0.097 -0.06929,0.0416 -0.152485,0.0832 -0.06929,0.0278 -0.110895,0.0554 -0.0416,0.0138 -0.138612,0.0693 -0.08318,0.0555 -0.08318,0.0693 -0.0416,0.0416 -0.152485,0.13862 -0.09703,0.097 -0.207928,0.207937 -0.09703,0.097 -0.194072,0.20793 -0.09703,0.097 -0.138618,0.13862 -0.01384,0 -0.06929,0.097 -0.05545,0.097 -0.06929,0.12475 -0.02776,0.0278 -0.08317,0.18021 -0.05545,0.15248 -0.08317,0.19406 0,0.0278 -0.02776,0.1109 -0.01384,0.0832 -0.0416,0.1802 -0.02776,0.097 -0.05544,0.19407 -0.01384,0.0832 -0.02776,0.097 0,0.0554 -0.05544,0.1802 -0.0416,0.1109 -0.06929,0.13862 -0.0416,0.0278 -0.180208,0.18021 -0.138617,0.13862 -0.194069,0.19406 -0.02776,0 -0.08317,0.0278 -0.05544,0.0278 -0.08317,0.0278 h -0.13862 -0.166341 l -0.06929,-0.0554 z" />
    <rect
       style="opacity:0.36700039;fill:#cccccc;fill-opacity:1;stroke:#000000;stroke-width:0;stroke-miterlimit:4;stroke-dasharray:none;stroke-dashoffset:0;stroke-opacity:1"
       id="rect890"
       width="58.816048"
       height="12.832592"
       x="20.825497"
       y="92.749146"
       ry="2.5390604" />
    <rect
       style="opacity:1;fill:none;fill-opacity:1;stroke:#cccccc;stroke-width:0.39700836;stroke-linejoin:round;stroke-miterlimit:4;stroke-dasharray:none;stroke-dashoffset:0;stroke-opacity:1"
       id="rect892"
       width="60.954815"
       height="14.971359"
       x="19.756107"
       y="91.947044"
       ry="2.939965"
       rx="3.2072344" />
  </g>
</svg>
